<svg version="1.1" id="Layer_1" xmlns="http://www.w3.org/2000/svg" xmlns:xlink="http://www.w3.org/1999/xlink" x="0px" y="0px"
	 width="100%" viewBox="0 0 3000 900" enable-background="new 0 0 3000 900" xml:space="preserve">
<path fill="#FFFFFF" opacity="1.000000" stroke="none" 
	d="
M1991.000000,901.000000 
	C1327.333374,901.000000 664.166687,901.000000 1.000000,901.000000 
	C1.000000,601.000000 1.000000,301.000000 1.000000,1.000000 
	C1001.000000,1.000000 2001.000000,1.000000 3001.000000,1.000000 
	C3001.000000,301.000000 3001.000000,601.000000 3001.000000,901.000000 
	C2664.500000,901.000000 2328.000000,901.000000 1991.000000,901.000000 
M812.400574,100.999207 
	C790.145935,100.999207 767.891296,100.999207 745.171021,100.999207 
	C745.171021,283.292480 745.171021,464.954529 745.171021,648.140015 
	C743.359253,645.005066 742.283508,643.223511 741.282837,641.400818 
	C667.568359,507.139587 593.861633,372.874146 520.150146,238.611282 
	C495.845795,194.341812 471.539612,150.073364 447.194397,105.826378 
	C445.937378,103.541794 445.385284,100.850929 441.425781,100.887970 
	C417.097198,101.115517 392.765533,101.008148 368.434906,101.034378 
	C367.987579,101.034859 367.540558,101.308319 367.133728,101.441231 
	C367.133728,333.957184 367.133728,566.354797 367.133728,798.897705 
	C391.446442,798.897705 415.520630,798.897705 440.139130,798.897705 
	C440.139130,616.739624 440.139130,434.785889 440.139130,252.003403 
	C441.027008,253.158493 441.366486,253.498367 441.588104,253.902832 
	C506.642853,372.651672 571.694153,491.402435 636.734436,610.159180 
	C670.489075,671.791687 704.249451,733.421082 737.892639,795.114380 
	C739.552979,798.159241 741.337219,799.233948 744.778259,799.186096 
	C759.273926,798.984497 773.774048,799.101746 788.272522,799.102112 
	C798.055542,799.102295 807.838501,799.102112 817.808350,799.102112 
	C817.808350,566.287598 817.808350,333.889191 817.808350,100.999207 
	C816.262817,100.999207 814.820251,100.999207 812.400574,100.999207 
M2114.670166,94.054672 
	C2113.373291,94.351227 2112.076660,94.650093 2110.779297,94.943985 
	C2050.103027,108.686943 2005.825562,143.080124 1980.560547,200.240051 
	C1965.188110,235.019073 1961.857544,271.887909 1966.899536,309.347412 
	C1974.494141,365.771240 2002.821777,408.799896 2052.421875,437.101166 
	C2081.910400,453.927094 2114.227051,463.890594 2146.402588,474.147827 
	C2181.859619,485.451172 2217.257080,496.969696 2252.448242,509.069458 
	C2270.395996,515.240356 2286.616211,524.895874 2299.640869,539.043823 
	C2324.145020,565.661499 2329.235352,597.748901 2323.296875,631.804993 
	C2315.945801,673.960815 2290.224121,701.811768 2250.859131,716.909790 
	C2217.385010,729.748474 2182.545410,731.010986 2147.560059,724.915039 
	C2095.127686,715.779053 2034.955200,682.400879 2020.070068,602.838623 
	C2017.873413,591.097107 2016.097168,579.276978 2014.082764,567.232483 
	C1990.541626,569.748047 1966.928467,572.271301 1943.200684,574.806824 
	C1943.124634,576.223145 1942.988525,577.208862 1943.031494,578.186707 
	C1944.077881,602.011658 1946.564697,625.657166 1952.977661,648.702576 
	C1973.024902,720.742676 2016.536621,771.987549 2087.703613,797.308899 
	C2136.054688,814.512390 2186.041992,815.645996 2236.024902,805.926758 
	C2307.653076,791.998718 2356.945312,750.271667 2384.045654,682.619263 
	C2398.681885,646.081726 2401.558105,607.980957 2396.735840,569.228638 
	C2393.365967,542.147888 2384.846680,516.720093 2369.812744,493.743958 
	C2346.639160,458.328613 2313.898193,434.893219 2275.212891,419.237061 
	C2239.090332,404.618011 2201.502197,394.507751 2164.086670,383.875763 
	C2136.244385,375.964203 2108.733154,367.086029 2082.946045,353.598480 
	C2064.193115,343.789917 2050.170898,329.741272 2043.343262,309.371674 
	C2037.350220,291.493103 2036.139526,273.090881 2039.678833,254.649033 
	C2046.748169,217.814529 2069.478027,193.813278 2103.878418,181.242538 
	C2140.150146,167.987961 2177.580078,167.426620 2215.040283,175.969620 
	C2244.107910,182.598633 2267.727051,197.826721 2284.215576,223.094528 
	C2296.052979,241.235077 2302.341553,261.488647 2305.912354,282.669189 
	C2307.114746,289.802124 2307.986084,296.990845 2309.054932,304.477997 
	C2333.582764,302.228180 2357.556152,300.029205 2381.574951,297.826080 
	C2381.027832,276.519257 2378.505371,255.927582 2373.001953,235.788696 
	C2356.357178,174.878601 2320.402588,130.240143 2261.283691,106.246140 
	C2214.156494,87.119133 2165.183594,85.321014 2114.670166,94.054672 
M952.399902,743.110779 
	C977.108093,769.567932 1006.675110,788.416443 1041.245728,799.137146 
	C1089.330933,814.048828 1138.157593,815.133911 1187.256348,805.357422 
	C1230.514893,796.743835 1267.536865,776.564148 1296.389526,742.808350 
	C1331.880493,701.286194 1347.566162,652.571167 1347.044189,598.354675 
	C1346.749634,567.752930 1341.402222,538.150208 1327.611084,510.538818 
	C1306.968506,469.210724 1273.601440,441.473907 1232.106567,422.993866 
	C1199.271484,408.370422 1164.703613,398.653625 1130.179565,388.971161 
	C1099.327515,380.318481 1068.512451,371.579865 1039.454468,357.774200 
	C1025.074951,350.942322 1011.397583,342.980194 1002.077209,329.466705 
	C985.401733,305.289337 982.749695,278.375610 988.842773,250.652161 
	C996.521667,215.713791 1019.344849,193.277130 1052.146973,181.164169 
	C1085.555786,168.827164 1120.202026,167.851120 1154.960571,174.116104 
	C1202.580200,182.699249 1233.937500,210.380692 1247.842285,256.780182 
	C1252.435669,272.108032 1254.876831,288.080811 1258.426147,304.326721 
	C1281.575806,302.215332 1305.680664,300.016846 1329.738403,297.822632 
	C1330.443359,283.203491 1325.898804,251.273193 1319.983521,231.151871 
	C1306.398682,184.942398 1280.900757,147.373520 1239.577515,121.510559 
	C1210.853149,103.532883 1179.291748,94.072945 1145.724854,90.812965 
	C1113.676880,87.700508 1081.829102,88.702446 1050.603882,97.028450 
	C994.535156,111.978844 953.572510,145.491043 929.604553,198.566345 
	C914.169006,232.747147 910.484009,269.008240 914.839539,305.965942 
	C921.900818,365.882660 951.897400,410.758484 1005.124390,439.498108 
	C1033.595337,454.870850 1064.387085,464.449219 1095.099854,474.218506 
	C1130.509399,485.481842 1165.833130,497.042267 1200.966431,509.135376 
	C1219.234985,515.423523 1235.721313,525.286072 1248.746948,539.881958 
	C1273.018433,567.079163 1277.787964,599.444153 1271.257324,633.810669 
	C1263.652832,673.827820 1239.143188,700.810974 1201.968994,715.830566 
	C1165.583130,730.531616 1127.449951,732.239441 1089.620605,723.623169 
	C1027.515381,709.477844 984.819702,673.576721 969.963013,609.407898 
	C966.751709,595.537598 964.690063,581.401123 962.079834,567.284363 
	C938.797913,569.782410 915.204651,572.313904 891.386047,574.869568 
	C893.136169,637.852844 908.600098,695.242493 952.399902,743.110779 
M1788.768433,238.772980 
	C1802.799561,262.167145 1812.001709,287.527802 1819.098511,314.010803 
	C1843.956177,306.837006 1868.564087,299.735260 1893.378662,292.573883 
	C1885.347656,259.028381 1874.120728,227.202606 1856.772827,197.766434 
	C1831.662598,155.158783 1797.083374,123.100075 1750.882690,104.550674 
	C1710.113037,88.181870 1667.820679,85.823387 1624.834473,92.816566 
	C1574.017578,101.083702 1530.389771,123.750687 1493.934692,159.953400 
	C1461.606567,192.057999 1439.563110,230.724701 1423.948975,273.193054 
	C1405.076904,324.521820 1398.387695,377.976257 1397.391846,432.294159 
	C1396.658447,472.303253 1399.011963,512.122314 1405.781982,551.643738 
	C1414.527710,602.698547 1430.781250,651.058655 1457.111694,695.794739 
	C1476.091919,728.042480 1499.597412,756.341064 1531.778564,776.269043 
	C1587.009888,810.470459 1647.246826,817.723389 1709.948853,806.227783 
	C1770.535278,795.120056 1816.859863,761.538147 1851.005493,710.801575 
	C1873.812988,676.911804 1887.964233,639.246155 1898.101929,599.930603 
	C1899.991211,592.604004 1901.641235,585.215576 1903.443237,577.681641 
	C1877.615967,569.784485 1852.511475,562.108276 1827.182007,554.363281 
	C1823.042603,577.943298 1817.448608,600.473816 1808.848022,622.167847 
	C1795.501587,655.832764 1775.757324,684.671936 1745.597900,705.608704 
	C1712.676514,728.463013 1676.091675,735.432739 1636.851074,730.468689 
	C1601.566284,726.005005 1571.575317,710.672119 1546.696655,685.406616 
	C1522.649414,660.985474 1506.677979,631.728088 1496.048218,599.364929 
	C1480.724487,552.710815 1476.213745,504.461700 1475.372925,455.758575 
	C1474.763062,420.434174 1476.785034,385.236511 1483.075562,350.375702 
	C1489.992065,312.045227 1502.759399,276.000885 1523.973267,243.094238 
	C1566.375122,177.321487 1639.295166,158.650726 1702.393188,172.483963 
	C1740.838745,180.912582 1768.187134,205.159592 1788.768433,238.772980 
M2782.500000,799.114136 
	C2796.769043,799.114136 2811.038086,799.114136 2825.475098,799.114136 
	C2825.475098,771.412903 2825.475098,744.328796 2825.475098,716.587402 
	C2731.508057,716.587402 2637.806152,716.587402 2543.567871,716.587402 
	C2543.567871,511.032776 2543.567871,306.135376 2543.567871,101.305740 
	C2518.107666,101.305740 2493.188477,101.305740 2468.297852,101.305740 
	C2468.297852,334.015961 2468.297852,566.414001 2468.297852,799.114136 
	C2572.899658,799.114136 2677.199707,799.114136 2782.500000,799.114136 
z"/>
<path fill="#010101" opacity="1.000000" stroke="none" 
	d="
M812.889160,100.999207 
	C814.820251,100.999207 816.262817,100.999207 817.808350,100.999207 
	C817.808350,333.889191 817.808350,566.287598 817.808350,799.102112 
	C807.838501,799.102112 798.055542,799.102295 788.272522,799.102112 
	C773.774048,799.101746 759.273926,798.984497 744.778259,799.186096 
	C741.337219,799.233948 739.552979,798.159241 737.892639,795.114380 
	C704.249451,733.421082 670.489075,671.791687 636.734436,610.159180 
	C571.694153,491.402435 506.642853,372.651672 441.588104,253.902832 
	C441.366486,253.498367 441.027008,253.158493 440.139130,252.003403 
	C440.139130,434.785889 440.139130,616.739624 440.139130,798.897705 
	C415.520630,798.897705 391.446442,798.897705 367.133728,798.897705 
	C367.133728,566.354797 367.133728,333.957184 367.133728,101.441231 
	C367.540558,101.308319 367.987579,101.034859 368.434906,101.034378 
	C392.765533,101.008148 417.097198,101.115517 441.425781,100.887970 
	C445.385284,100.850929 445.937378,103.541794 447.194397,105.826378 
	C471.539612,150.073364 495.845795,194.341812 520.150146,238.611282 
	C593.861633,372.874146 667.568359,507.139587 741.282837,641.400818 
	C742.283508,643.223511 743.359253,645.005066 745.171021,648.140015 
	C745.171021,464.954529 745.171021,283.292480 745.171021,100.999207 
	C767.891296,100.999207 790.145935,100.999207 812.889160,100.999207 
z"/>
<path fill="#203CB9" opacity="1.000000" stroke="none" 
	d="
M2115.094727,94.004486 
	C2165.183594,85.321014 2214.156494,87.119133 2261.283691,106.246140 
	C2320.402588,130.240143 2356.357178,174.878601 2373.001953,235.788696 
	C2378.505371,255.927582 2381.027832,276.519257 2381.574951,297.826080 
	C2357.556152,300.029205 2333.582764,302.228180 2309.054932,304.477997 
	C2307.986084,296.990845 2307.114746,289.802124 2305.912354,282.669189 
	C2302.341553,261.488647 2296.052979,241.235077 2284.215576,223.094528 
	C2267.727051,197.826721 2244.107910,182.598633 2215.040283,175.969620 
	C2177.580078,167.426620 2140.150146,167.987961 2103.878418,181.242538 
	C2069.478027,193.813278 2046.748169,217.814529 2039.678833,254.649033 
	C2036.139526,273.090881 2037.350220,291.493103 2043.343262,309.371674 
	C2050.170898,329.741272 2064.193115,343.789917 2082.946045,353.598480 
	C2108.733154,367.086029 2136.244385,375.964203 2164.086670,383.875763 
	C2201.502197,394.507751 2239.090332,404.618011 2275.212891,419.237061 
	C2313.898193,434.893219 2346.639160,458.328613 2369.812744,493.743958 
	C2384.846680,516.720093 2393.365967,542.147888 2396.735840,569.228638 
	C2401.558105,607.980957 2398.681885,646.081726 2384.045654,682.619263 
	C2356.945312,750.271667 2307.653076,791.998718 2236.024902,805.926758 
	C2186.041992,815.645996 2136.054688,814.512390 2087.703613,797.308899 
	C2016.536621,771.987549 1973.024902,720.742676 1952.977661,648.702576 
	C1946.564697,625.657166 1944.077881,602.011658 1943.031494,578.186707 
	C1942.988525,577.208862 1943.124634,576.223145 1943.200684,574.806824 
	C1966.928467,572.271301 1990.541626,569.748047 2014.082764,567.232483 
	C2016.097168,579.276978 2017.873413,591.097107 2020.070068,602.838623 
	C2034.955200,682.400879 2095.127686,715.779053 2147.560059,724.915039 
	C2182.545410,731.010986 2217.385010,729.748474 2250.859131,716.909790 
	C2290.224121,701.811768 2315.945801,673.960815 2323.296875,631.804993 
	C2329.235352,597.748901 2324.145020,565.661499 2299.640869,539.043823 
	C2286.616211,524.895874 2270.395996,515.240356 2252.448242,509.069458 
	C2217.257080,496.969696 2181.859619,485.451172 2146.402588,474.147827 
	C2114.227051,463.890594 2081.910400,453.927094 2052.421875,437.101166 
	C2002.821777,408.799896 1974.494141,365.771240 1966.899536,309.347412 
	C1961.857544,271.887909 1965.188110,235.019073 1980.560547,200.240051 
	C2005.825562,143.080124 2050.103027,108.686943 2110.779297,94.943985 
	C2112.076660,94.650093 2113.373291,94.351227 2115.094727,94.004486 
z"/>
<path fill="#010101" opacity="1.000000" stroke="none" 
	d="
M952.147827,742.859131 
	C908.600098,695.242493 893.136169,637.852844 891.386047,574.869568 
	C915.204651,572.313904 938.797913,569.782410 962.079834,567.284363 
	C964.690063,581.401123 966.751709,595.537598 969.963013,609.407898 
	C984.819702,673.576721 1027.515381,709.477844 1089.620605,723.623169 
	C1127.449951,732.239441 1165.583130,730.531616 1201.968994,715.830566 
	C1239.143188,700.810974 1263.652832,673.827820 1271.257324,633.810669 
	C1277.787964,599.444153 1273.018433,567.079163 1248.746948,539.881958 
	C1235.721313,525.286072 1219.234985,515.423523 1200.966431,509.135376 
	C1165.833130,497.042267 1130.509399,485.481842 1095.099854,474.218506 
	C1064.387085,464.449219 1033.595337,454.870850 1005.124390,439.498108 
	C951.897400,410.758484 921.900818,365.882660 914.839539,305.965942 
	C910.484009,269.008240 914.169006,232.747147 929.604553,198.566345 
	C953.572510,145.491043 994.535156,111.978844 1050.603882,97.028450 
	C1081.829102,88.702446 1113.676880,87.700508 1145.724854,90.812965 
	C1179.291748,94.072945 1210.853149,103.532883 1239.577515,121.510559 
	C1280.900757,147.373520 1306.398682,184.942398 1319.983521,231.151871 
	C1325.898804,251.273193 1330.443359,283.203491 1329.738403,297.822632 
	C1305.680664,300.016846 1281.575806,302.215332 1258.426147,304.326721 
	C1254.876831,288.080811 1252.435669,272.108032 1247.842285,256.780182 
	C1233.937500,210.380692 1202.580200,182.699249 1154.960571,174.116104 
	C1120.202026,167.851120 1085.555786,168.827164 1052.146973,181.164169 
	C1019.344849,193.277130 996.521667,215.713791 988.842773,250.652161 
	C982.749695,278.375610 985.401733,305.289337 1002.077209,329.466705 
	C1011.397583,342.980194 1025.074951,350.942322 1039.454468,357.774200 
	C1068.512451,371.579865 1099.327515,380.318481 1130.179565,388.971161 
	C1164.703613,398.653625 1199.271484,408.370422 1232.106567,422.993866 
	C1273.601440,441.473907 1306.968506,469.210724 1327.611084,510.538818 
	C1341.402222,538.150208 1346.749634,567.752930 1347.044189,598.354675 
	C1347.566162,652.571167 1331.880493,701.286194 1296.389526,742.808350 
	C1267.536865,776.564148 1230.514893,796.743835 1187.256348,805.357422 
	C1138.157593,815.133911 1089.330933,814.048828 1041.245728,799.137146 
	C1006.675110,788.416443 977.108093,769.567932 952.147827,742.859131 
z"/>
<path fill="#010101" opacity="1.000000" stroke="none" 
	d="
M1788.549072,238.481705 
	C1768.187134,205.159592 1740.838745,180.912582 1702.393188,172.483963 
	C1639.295166,158.650726 1566.375122,177.321487 1523.973267,243.094238 
	C1502.759399,276.000885 1489.992065,312.045227 1483.075562,350.375702 
	C1476.785034,385.236511 1474.763062,420.434174 1475.372925,455.758575 
	C1476.213745,504.461700 1480.724487,552.710815 1496.048218,599.364929 
	C1506.677979,631.728088 1522.649414,660.985474 1546.696655,685.406616 
	C1571.575317,710.672119 1601.566284,726.005005 1636.851074,730.468689 
	C1676.091675,735.432739 1712.676514,728.463013 1745.597900,705.608704 
	C1775.757324,684.671936 1795.501587,655.832764 1808.848022,622.167847 
	C1817.448608,600.473816 1823.042603,577.943298 1827.182007,554.363281 
	C1852.511475,562.108276 1877.615967,569.784485 1903.443237,577.681641 
	C1901.641235,585.215576 1899.991211,592.604004 1898.101929,599.930603 
	C1887.964233,639.246155 1873.812988,676.911804 1851.005493,710.801575 
	C1816.859863,761.538147 1770.535278,795.120056 1709.948853,806.227783 
	C1647.246826,817.723389 1587.009888,810.470459 1531.778564,776.269043 
	C1499.597412,756.341064 1476.091919,728.042480 1457.111694,695.794739 
	C1430.781250,651.058655 1414.527710,602.698547 1405.781982,551.643738 
	C1399.011963,512.122314 1396.658447,472.303253 1397.391846,432.294159 
	C1398.387695,377.976257 1405.076904,324.521820 1423.948975,273.193054 
	C1439.563110,230.724701 1461.606567,192.057999 1493.934692,159.953400 
	C1530.389771,123.750687 1574.017578,101.083702 1624.834473,92.816566 
	C1667.820679,85.823387 1710.113037,88.181870 1750.882690,104.550674 
	C1797.083374,123.100075 1831.662598,155.158783 1856.772827,197.766434 
	C1874.120728,227.202606 1885.347656,259.028381 1893.378662,292.573883 
	C1868.564087,299.735260 1843.956177,306.837006 1819.098511,314.010803 
	C1812.001709,287.527802 1802.799561,262.167145 1788.549072,238.481705 
z"/>
<path fill="#203CB9" opacity="1.000000" stroke="none" 
	d="
M2782.000000,799.114136 
	C2677.199707,799.114136 2572.899658,799.114136 2468.297852,799.114136 
	C2468.297852,566.414001 2468.297852,334.015961 2468.297852,101.305740 
	C2493.188477,101.305740 2518.107666,101.305740 2543.567871,101.305740 
	C2543.567871,306.135376 2543.567871,511.032776 2543.567871,716.587402 
	C2637.806152,716.587402 2731.508057,716.587402 2825.475098,716.587402 
	C2825.475098,744.328796 2825.475098,771.412903 2825.475098,799.114136 
	C2811.038086,799.114136 2796.769043,799.114136 2782.000000,799.114136 
z"/>
</svg>